<?xml version="1.0" encoding="UTF-8" standalone="no"?> <svg class="svg-icon" style="width: 1em; height: 1em;vertical-align: middle;fill: currentColor;overflow: hidden;" viewBox="0 0 1024 1024" version="1.1" xmlns="http://www.w3.org/2000/svg"><path d="M437.077333 164.010667l-16.042666 197.290666s-64.170667 46.592-64.170667 106.154667v500.565333a30.378667 30.378667 0 0 0 32.085333 30.378667H597.333333a30.378667 30.378667 0 0 0 32.085334-30.378667V467.456c0-59.562667-64.341333-106.154667-64.341334-106.154667L549.546667 164.010667z" fill="#FFFFFF" /><path d="M597.333333 1015.466667H388.949333a46.933333 46.933333 0 0 1-49.152-47.445334V467.456c0-56.149333 47.274667-100.522667 64.853334-115.029333l15.530666-189.781334a17.066667 17.066667 0 0 1 17.066667-15.701333h112.298667a17.066667 17.066667 0 0 1 17.066666 15.701333l15.530667 189.781334c17.066667 14.506667 64.853333 58.88 64.853333 115.029333v500.565333A46.933333 46.933333 0 0 1 597.333333 1015.466667z m-144.384-834.389334l-14.848 181.589334a17.066667 17.066667 0 0 1-6.997333 12.458666s-57.173333 42.325333-57.173333 92.330667v500.565333a12.970667 12.970667 0 0 0 15.018666 13.312H597.333333a12.970667 12.970667 0 0 0 15.018667-13.482666V467.456c0-50.005333-56.661333-91.989333-57.173333-92.330667a17.066667 17.066667 0 0 1-6.997334-12.458666l-14.848-181.589334z m-31.914666 180.053334z" fill="#6D6E71" /><path d="M538.965333 939.52a17.066667 17.066667 0 0 1 0-34.133333 12.117333 12.117333 0 0 0 13.312-13.312V710.144a17.066667 17.066667 0 0 1 34.133334 0v181.930667a46.08 46.08 0 0 1-47.445334 47.445333z" fill="#A7A9AC" /><path d="M493.397333 162.133333a221.866667 221.866667 0 0 1-73.898666-8.533333V53.589333a221.866667 221.866667 0 0 1 73.898666-9.045333 221.866667 221.866667 0 0 1 73.898667 9.045333V153.6a221.866667 221.866667 0 0 1-73.898667 8.533333z" fill="#F15A29" /><path d="M493.397333 61.610667a286.208 286.208 0 0 1 56.832 4.778666v73.898667a286.208 286.208 0 0 1-56.832 4.778667 286.208 286.208 0 0 1-56.832-4.778667V66.389333a286.208 286.208 0 0 1 56.832-4.778666m0-34.133334c-45.568 0-90.965333 6.997333-90.965333 20.992v109.738667c0 13.994667 45.568 20.992 90.965333 20.992s90.965333-6.997333 90.965334-20.992V48.469333c0-13.994667-45.568-20.992-90.965334-20.992z" fill="#BE1E2D" /><path d="M523.776 135.509333a17.066667 17.066667 0 0 1-17.066667-17.066666V88.064a17.066667 17.066667 0 0 1 34.133334 0v30.378667a17.066667 17.066667 0 0 1-17.066667 17.066666z" fill="#FFF200" /><path d="M417.450667 499.541333a17.066667 17.066667 0 0 1-17.066667-17.066666 82.602667 82.602667 0 0 1 39.765333-75.946667 17.066667 17.066667 0 0 1 15.530667 30.378667 49.834667 49.834667 0 0 0-21.162667 45.568 17.066667 17.066667 0 0 1-17.066666 17.066666z" fill="#A7A9AC" /></svg>