<?xml version="1.0" encoding="UTF-8"?>
<!DOCTYPE svg PUBLIC "-//W3C//DTD SVG 1.1//EN" "http://www.w3.org/Graphics/SVG/1.1/DTD/svg11.dtd">
<!-- Creator: CorelDRAW -->
<svg xmlns="http://www.w3.org/2000/svg" xml:space="preserve" fill="black" width="512px" height="512px" version="1.1" style="shape-rendering:geometricPrecision; text-rendering:geometricPrecision; image-rendering:optimizeQuality; fill-rule:evenodd; clip-rule:evenodd"
viewBox="0 0 512 512"
 xmlns:xlink="http://www.w3.org/1999/xlink">
 <defs>
  <!-- <style type="text/css">
   <![CDATA[
    .fil0 {fill:black}
   ]]>
  </style> -->
 </defs>
 <g id="Layer_x0020_1">
  <metadata id="CorelCorpID_0Corel-Layer"/>
  <g id="_577224664">
   <g>
    <path class="fil0" d="M416 198c-4,0 -7,-3 -7,-7 0,-4 3,-7 7,-7 14,0 25,-11 25,-25l0 -7c0,-14 -11,-25 -25,-25l-320 0c-14,0 -25,11 -25,25l0 7c0,14 11,25 25,25 4,0 7,3 7,7 0,4 -3,7 -7,7 -22,0 -39,-17 -39,-39l0 -7c0,-22 17,-39 39,-39l320 0c22,0 39,17 39,39l0 7c0,22 -17,39 -39,39z"/>
   </g>
   <g>
    <path class="fil0" d="M256 512c-49,0 -96,-1 -130,-3 -19,-1 -34,-2 -45,-4 -17,-2 -22,-5 -24,-8 -5,-8 -6,-18 -3,-27 5,-16 19,-30 32,-38 -13,-78 -12,-164 3,-242 1,-4 5,-6 8,-6 4,1 7,5 6,8 -15,79 -16,165 -2,243 1,3 -1,6 -4,7 -11,6 -26,19 -29,32 -2,5 -2,10 1,15 2,1 14,4 62,6 34,2 79,3 125,3 47,0 91,-1 125,-3 48,-2 60,-5 63,-7 2,-4 2,-9 1,-14 -4,-13 -19,-26 -30,-32 -3,-1 -4,-4 -4,-7 14,-78 13,-164 -2,-243 -1,-3 2,-7 6,-8 3,-1 7,2 8,6 15,78 16,164 3,242 13,8 27,22 32,38 3,9 2,19 -3,26 -2,4 -7,7 -24,9 -11,2 -26,3 -44,4 -35,2 -82,3 -131,3zm187 -22c0,0 0,0 0,0 0,0 0,0 0,0zm-374 0c0,0 0,0 0,0 0,0 0,0 0,0zm374 0c0,0 0,0 0,0 0,0 0,0 0,0zm-374 0c0,0 0,0 0,0 0,0 0,0 0,0zm375 -2l0 0 0 0zm-376 0l0 0z"/>
   </g>
   <g>
    <path class="fil0" d="M402 127c-2,0 -4,-1 -5,-2l-90 -90c-14,-14 -32,-21 -51,-21 -19,0 -37,7 -51,21l-90 90c-3,3 -7,3 -10,0 -3,-3 -3,-7 0,-10l90 -90c34,-34 88,-34 122,0l90 90c3,3 3,7 0,10 -1,1 -3,2 -5,2z"/>
   </g>
   <g>
    <path class="fil0" d="M222 52c0,0 -1,0 -1,0 -1,0 -1,0 -2,0 0,-1 0,-1 -1,-1 0,0 -1,-1 -1,-1 0,0 -1,-1 -1,-1 0,0 0,-1 0,-1 -1,-1 -1,-1 -1,-2 0,0 0,0 0,-1 0,0 0,-1 0,-1 0,-1 0,-1 1,-2 0,0 0,0 0,-1 0,0 1,0 1,-1 0,0 1,0 1,-1 1,0 1,0 1,0 1,-1 1,-1 2,-1 2,0 4,1 6,2 0,0 1,1 1,1 0,1 0,1 0,1 1,1 1,1 1,2 0,0 0,1 0,1 0,1 0,1 0,2 0,0 0,0 0,1 -1,0 -1,1 -1,1 0,0 -1,1 -1,1 -1,1 -3,2 -5,2z"/>
   </g>
   <g>
    <path class="fil0" d="M189 98c0,0 -1,0 -1,0 -1,0 -1,0 -2,0 0,-1 0,-1 -1,-1 0,0 -1,-1 -1,-1 -1,-1 -2,-3 -2,-5 0,0 0,-1 0,-1 0,-1 0,-1 1,-2 0,0 0,0 0,-1 0,0 1,-1 1,-1 0,0 1,0 1,-1 1,0 1,0 1,0 1,-1 1,-1 2,-1 1,0 1,0 2,0 1,0 1,0 2,1 0,0 0,0 1,0 0,1 1,1 1,1 0,0 1,1 1,1 0,1 0,1 0,1 1,1 1,1 1,2 0,0 0,1 0,1 0,1 0,1 0,2 0,0 0,0 -1,1 0,0 0,1 0,1 0,0 -1,1 -1,1 0,0 -1,1 -1,1 -1,0 -1,1 -1,1 -1,0 -1,0 -2,0 0,0 0,0 -1,0z"/>
   </g>
   <g>
    <path class="fil0" d="M243 92l-1 0c-4,0 -7,-3 -7,-7 0,-4 3,-7 7,-7l1 0c4,0 7,3 7,7 0,4 -3,7 -7,7z"/>
   </g>
   <g>
    <path class="fil0" d="M304 102c-2,0 -4,-1 -5,-2 0,0 -1,-1 -1,-1 0,0 0,-1 0,-1 -1,-1 -1,-1 -1,-2 0,0 0,0 0,-1 0,-2 1,-4 2,-5 0,0 1,-1 1,-1 1,0 1,0 1,0 1,-1 1,-1 2,-1 1,0 1,0 2,0 1,0 1,0 2,1 0,0 0,0 1,0 0,0 1,1 1,1 1,1 2,3 2,5 0,1 0,1 0,1 0,1 0,1 0,2 -1,0 -1,1 -1,1 0,0 -1,1 -1,1 0,0 -1,1 -1,1 0,0 -1,0 -1,1 -1,0 -1,0 -2,0 0,0 0,0 -1,0z"/>
   </g>
   <g>
    <path class="fil0" d="M276 41c0,0 -1,0 -1,0 -1,0 -1,0 -2,0 0,-1 0,-1 -1,-1 0,0 -1,-1 -1,-1 0,0 -1,-1 -1,-1 0,0 0,-1 0,-1 -1,-1 -1,-1 -1,-2 0,0 0,0 0,-1 0,0 0,-1 0,-1 0,-1 0,-1 1,-2 0,0 0,0 0,-1 0,0 1,-1 1,-1 2,-2 4,-2 6,-2 1,0 1,0 2,1 0,0 0,0 1,0 0,1 1,1 1,1 1,1 2,3 2,5 0,1 0,1 0,1 0,1 0,1 0,2 -1,0 -1,1 -1,1 0,0 -1,1 -1,1 0,0 -1,1 -1,1 0,0 -1,0 -1,1 -1,0 -1,0 -2,0 0,0 0,0 -1,0z"/>
   </g>
   <g>
    <path class="fil0" d="M273 78c0,0 -1,0 -1,0 -1,0 -1,0 -2,0 0,-1 0,-1 -1,-1 0,0 -1,0 -1,-1 0,0 -1,-1 -1,-1 0,0 0,-1 0,-1 -1,-1 -1,-1 -1,-2 0,0 0,0 0,-1 0,0 0,-1 0,-1 0,-1 0,-1 1,-2 0,0 0,0 0,-1 0,0 1,-1 1,-1 0,0 1,0 1,-1 1,0 1,0 1,0 1,-1 1,-1 2,-1 1,0 1,0 2,0 1,0 1,0 2,1 0,0 0,0 1,0 0,1 1,1 1,1 0,0 1,1 1,1 0,1 0,1 0,1 1,1 1,1 1,2 0,0 0,1 0,1 0,1 0,1 0,1 0,1 0,1 -1,2 0,0 0,1 0,1 0,0 -1,1 -1,1 0,0 -1,1 -1,1 -1,0 -1,0 -1,1 -1,0 -1,0 -2,0 0,0 0,0 -1,0z"/>
   </g>
   <g>
    <path class="fil0" d="M297 73c0,0 -1,0 -1,0 -1,0 -1,0 -2,0 0,-1 0,-1 -1,-1 0,0 -1,0 -1,-1 0,0 -1,-1 -1,-1 0,0 0,-1 0,-1 -1,-1 -1,-1 -1,-1 0,-1 0,-1 0,-2 0,0 0,-1 0,-1 0,-1 0,-1 1,-2 0,0 0,0 0,-1 0,0 1,-1 1,-1 0,0 1,0 1,-1 1,0 1,0 1,0 1,-1 1,-1 2,-1 1,0 1,0 2,0 1,0 1,0 2,1 0,0 0,0 1,0 0,1 1,1 1,1 0,0 1,1 1,1 0,1 0,1 0,1 1,1 1,1 1,2 0,0 0,1 0,1 0,1 0,1 0,2 0,0 0,0 -1,1 0,0 0,1 0,1 0,0 -1,1 -1,1 0,0 -1,1 -1,1 -1,0 -1,0 -1,1 -1,0 -1,0 -2,0 0,0 0,0 -1,0z"/>
   </g>
   <g>
    <path class="fil0" d="M218 78c0,0 -1,0 -1,0 -1,0 -1,0 -2,0 0,-1 0,-1 -1,-1 0,0 -1,0 -1,-1 -1,-1 -2,-3 -2,-5 0,0 0,-1 0,-1 0,-1 0,-1 1,-2 0,0 0,0 0,-1 0,0 1,0 1,-1 0,0 1,0 1,-1 1,0 1,0 1,0 1,0 1,-1 2,-1 1,0 1,0 2,0 1,0 1,0 2,1 0,0 0,0 1,0 0,1 1,1 1,1 0,0 1,1 1,1 0,1 0,1 0,1 1,1 1,1 1,2 0,0 0,1 0,1 0,2 -1,4 -2,5 0,0 -1,1 -1,1 -1,0 -1,0 -1,1 -1,0 -1,0 -2,0 0,0 0,0 -1,0z"/>
   </g>
   <g>
    <path class="fil0" d="M332 95c-2,0 -4,-1 -5,-2 -1,-1 -2,-3 -2,-5 0,-2 1,-4 2,-5 2,-2 4,-2 6,-2 1,0 1,0 2,1 0,0 0,0 1,0 0,1 1,1 1,1 1,1 2,3 2,5 0,1 0,1 0,1 0,1 0,1 0,2 -1,0 -1,1 -1,1 0,0 -1,1 -1,1 0,0 -1,1 -1,1 0,0 -1,0 -1,1 -1,0 -1,0 -2,0 0,0 0,0 -1,0z"/>
   </g>
   <g>
    <path class="fil0" d="M268 105c0,0 -1,0 -1,0 -1,0 -1,0 -2,0 0,-1 0,-1 -1,-1 0,0 -1,0 -1,-1 0,0 -1,-1 -1,-1 0,0 0,-1 0,-1 -1,-1 -1,-1 -1,-2 0,0 0,0 0,-1 0,-2 1,-4 2,-5 0,0 1,0 1,-1 1,0 1,0 1,0 1,-1 1,-1 2,-1 2,0 4,1 6,2 1,1 2,3 2,5 0,1 0,1 0,1 0,1 0,1 0,2 -1,0 -1,1 -1,1 0,0 -1,1 -1,1 -1,1 -3,2 -5,2z"/>
   </g>
   <g>
    <path class="fil0" d="M216 106c-2,0 -4,-1 -5,-2 0,0 -1,-1 -1,-1 0,0 0,-1 0,-1 -1,-1 -1,-1 -1,-2 0,0 0,0 0,-1 0,-2 1,-4 2,-5 0,0 1,0 1,-1 1,0 1,0 1,0 1,-1 1,-1 2,-1 1,0 1,0 2,0 1,0 1,0 2,1 0,0 0,0 1,0 0,1 1,1 1,1 1,1 2,3 2,5 0,1 0,1 0,2 0,0 0,0 0,1 -1,0 -1,1 -1,1 0,0 -1,1 -1,1 0,0 -1,1 -1,1 0,0 -1,0 -1,1 -1,0 -1,0 -2,0 0,0 0,0 -1,0z"/>
   </g>
   <g>
    <path class="fil0" d="M248 60c0,0 -1,0 -1,0 -1,0 -1,0 -2,0 0,-1 0,-1 -1,-1 0,0 -1,0 -1,-1 0,0 -1,-1 -1,-1 0,0 0,-1 0,-1 -1,-1 -1,-1 -1,-2 0,0 0,0 0,-1 0,0 0,-1 0,-1 0,-1 0,-1 1,-2 0,0 0,0 0,-1 0,0 1,0 1,-1 0,0 1,0 1,-1 1,0 1,0 1,0 1,-1 1,-1 2,-1 1,0 1,0 2,0 1,0 1,0 2,1 0,0 0,0 1,0 0,1 1,1 1,1 0,0 1,1 1,1 0,1 0,1 0,1 1,1 1,1 1,2 0,0 0,1 0,1 0,1 0,1 0,1 0,1 0,1 0,2 -1,0 -1,1 -1,1 0,0 -1,1 -1,1 0,0 -1,1 -1,1 0,0 -1,0 -1,1 -1,0 -1,0 -2,0 0,0 0,0 -1,0z"/>
   </g>
   <g>
    <path class="fil0" d="M350 169l-188 0c-4,0 -7,-3 -7,-7 0,-4 3,-7 7,-7l188 0c4,0 7,3 7,7 0,4 -3,7 -7,7z"/>
   </g>
   <g>
    <path class="fil0" d="M350 470l-188 0c-4,0 -7,-3 -7,-7 0,-4 3,-7 7,-7l188 0c4,0 7,3 7,7 0,4 -3,7 -7,7z"/>
   </g>
   <g>
    <path class="fil0" d="M261 422c-4,0 -7,-3 -7,-7l0 0c-3,-44 -2,-103 18,-135 2,-3 7,-4 10,-2 3,2 4,7 2,10 -14,22 -20,67 -16,126l0 1c0,3 -3,7 -7,7 0,0 0,0 0,0z"/>
   </g>
   <g>
    <path class="fil0" d="M278 291c0,0 -1,0 -1,0 -1,0 -2,-1 -3,-1 -1,-1 -1,-1 -2,-2 0,0 0,0 0,-1 -13,-23 -16,-43 -9,-59 7,-17 22,-23 25,-24 2,-1 5,-1 7,0 0,0 0,1 1,1 1,1 14,12 15,31 1,17 -8,35 -28,53 0,0 -1,1 -1,1 -1,0 -1,1 -2,1 -1,0 -1,0 -2,0zm12 -73c-4,3 -11,7 -14,15 -4,11 -3,24 4,39 12,-12 18,-24 17,-35 0,-9 -4,-15 -7,-19z"/>
   </g>
   <g>
    <path class="fil0" d="M265 326c0,0 0,0 0,0 -1,0 -1,0 -1,0 -26,-5 -43,-15 -52,-30 -9,-16 -3,-33 -3,-35 1,0 1,-1 1,-1 0,-1 1,-2 1,-2 1,-1 2,-1 3,-2 0,0 0,0 1,0 2,0 19,-3 34,8 14,10 21,28 23,54 0,1 0,1 0,1 0,1 0,2 -1,3 0,1 -1,2 -1,2 -1,1 -2,1 -3,2 -1,0 -1,0 -2,0zm-43 -57c-1,5 -2,13 3,21 5,9 16,16 32,20 -2,-17 -8,-28 -17,-35 -6,-5 -14,-6 -18,-6z"/>
   </g>
   <g>
    <path class="fil0" d="M276 357c-5,0 -10,0 -16,-1 0,0 0,0 -1,0 0,0 -1,-1 -2,-1 -1,-1 -1,-1 -2,-2 0,-1 -1,-2 -1,-3 0,-1 0,-2 0,-3 0,0 0,0 1,-1 9,-24 22,-40 38,-45 18,-6 33,2 35,3 1,0 1,0 1,0 1,1 1,2 2,2 0,1 1,2 1,3 0,0 0,1 0,1 0,2 0,20 -14,33 -9,9 -24,14 -42,14zm-5 -14c17,1 30,-3 38,-10 6,-6 8,-14 9,-18 -4,-2 -12,-4 -20,-1 -11,4 -20,13 -27,29z"/>
   </g>
   <g>
    <path class="fil0" d="M224 390c-8,0 -15,-2 -21,-5 -17,-8 -22,-25 -23,-27 0,0 0,-1 0,-1 0,-1 0,-2 0,-3 0,-1 1,-1 1,-2 1,0 1,-1 1,-1 1,-1 14,-14 33,-14 17,0 34,11 50,32 1,0 1,0 1,0 0,1 1,2 1,3 0,1 0,2 0,3 0,1 -1,2 -1,3 -1,0 -1,1 -2,1 0,0 -1,0 -1,1 -15,6 -28,10 -39,10zm-29 -32c2,4 6,11 14,15 10,4 23,4 40,-3 -12,-12 -23,-19 -34,-19 -9,0 -16,4 -20,7z"/>
   </g>
  </g>
 </g>
</svg>
