<?xml version="1.0" encoding="iso-8859-1"?>
<!-- Generator: Adobe Illustrator 19.0.0, SVG Export Plug-In . SVG Version: 6.00 Build 0)  -->
<svg version="1.1" id="Capa_1" xmlns="http://www.w3.org/2000/svg" xmlns:xlink="http://www.w3.org/1999/xlink" x="0px" y="0px"
	 viewBox="0 0 512 512" style="enable-background:new 0 0 512 512;" xml:space="preserve">
<g>
	<g>
		<path d="M345.07,466.52c-1.86-1.87-4.44-2.93-7.07-2.93s-5.21,1.06-7.07,2.93c-1.86,1.86-2.93,4.43-2.93,7.07
			c0,2.63,1.07,5.2,2.93,7.07c1.86,1.86,4.44,2.93,7.07,2.93s5.21-1.07,7.07-2.93c1.86-1.87,2.93-4.44,2.93-7.07
			C348,470.95,346.93,468.38,345.07,466.52z"/>
	</g>
</g>
<g>
	<g>
		<path d="M111.42,112.25c-1.86-1.86-4.44-2.93-7.07-2.93c-2.63,0-5.21,1.07-7.07,2.93c-1.86,1.86-2.93,4.44-2.93,7.07
			s1.07,5.21,2.93,7.07c1.86,1.86,4.44,2.93,7.07,2.93c2.63,0,5.21-1.07,7.07-2.93c1.87-1.86,2.93-4.44,2.93-7.07
			S113.29,114.11,111.42,112.25z"/>
	</g>
</g>
<g>
	<g>
		<path d="M496.501,156.96l-226-124.789c-9.082-5.015-19.923-5.014-29.003,0L137.015,89.863c-4.835,2.67-6.59,8.753-3.921,13.588
			c2.67,4.834,8.753,6.589,13.588,3.92l104.484-57.693c3.026-1.671,6.64-1.671,9.667,0l226,124.79
			c3.187,1.759,5.166,5.114,5.166,8.754v120.299c-7.808-0.738-19.035-0.76-30.962,2.635c1.066-4.735,1.686-9.799,1.686-15.205
			c0-41.646-36.201-63.089-37.743-63.982c-3.099-1.794-6.922-1.795-10.022,0c-1.541,0.893-37.743,22.336-37.743,63.982
			c0,5.399,0.619,10.457,1.682,15.187c-19.41-5.506-36.965-1.974-40.897-1.046c-3.935-0.93-21.525-4.469-40.963,1.063
			c1.066-4.735,1.686-9.799,1.686-15.205c0-41.646-36.201-63.089-37.743-63.982c-3.099-1.794-6.922-1.795-10.022,0
			c-1.541,0.893-37.743,22.336-37.743,63.982c0,5.399,0.619,10.457,1.682,15.187c-19.411-5.506-36.965-1.974-40.898-1.046
			c-3.935-0.93-21.525-4.469-40.963,1.064c1.066-4.735,1.686-9.799,1.686-15.205c0-41.646-36.201-63.089-37.743-63.982
			c-3.099-1.794-6.922-1.795-10.022,0c-1.541,0.893-37.743,22.336-37.743,63.982c0,5.399,0.619,10.457,1.682,15.187
			c-11.903-3.376-23.104-3.353-30.898-2.616v-120.3c0-3.64,1.979-6.995,5.167-8.754l43.381-23.953
			c4.834-2.67,6.59-8.753,3.92-13.588c-2.669-4.834-8.753-6.589-13.588-3.92l-43.38,23.953C5.939,162.239,0,172.302,0,183.223
			v270.364c0,16.542,13.458,30,30,30h258.724c5.523,0,10-4.477,10-10s-4.477-10-10-10h-22.716v-58.765
			c2.378,0.209,5.06,0.353,7.994,0.353c14.946,0,36.099-3.679,53.295-20.875c4.408-4.408,7.916-9.069,10.704-13.815
			c2.788,4.746,6.296,9.408,10.704,13.816c17.198,17.197,38.348,20.875,53.294,20.875c2.939,0,5.627-0.145,8.009-0.354v58.766H380.5
			c-5.523,0-10,4.477-10,10s4.477,10,10,10H482c16.542,0,30-13.458,30-30V183.223C512,172.302,506.061,162.239,496.501,156.96z
			 M82.007,463.587H30c-5.514,0-10-4.486-10-10v-70.01c0.234,0.241,0.464,0.484,0.704,0.723
			c17.198,17.197,38.348,20.875,53.294,20.875c2.939,0,5.627-0.145,8.009-0.354V463.587z M82.015,380.364
			c-0.078,1.628-0.204,3.117-0.352,4.429c-10.253,1.153-31.088,1.093-46.817-14.635C23.639,358.95,20.462,345.213,20,334.576v-5.841
			c0.083-1.92,0.237-3.661,0.417-5.164c10.115-1.192,30.93-1.271,46.608,14.408c0.477,0.477,0.939,0.96,1.388,1.446
			c0.287,0.324,0.573,0.655,0.859,0.969c9.442,10.782,12.276,23.47,12.746,33.447C81.934,376.143,81.943,378.327,82.015,380.364z
			 M99.501,327.414c-2.713,2.92-5.362,5.259-7.531,6.99c-1.973-1.574-4.344-3.651-6.798-6.211c-0.909-1.076-1.866-2.141-2.87-3.192
			c-6.676-7.924-13.086-19.355-13.086-34.049c0-22.267,14.738-36.864,22.752-43.155c8.031,6.304,22.756,20.899,22.756,43.155
			c0,15.158-6.821,26.844-13.719,34.788C100.49,326.294,99.989,326.852,99.501,327.414z M102,374.36
			c0.437-10.818,3.581-24.986,14.975-36.381c15.746-15.747,36.488-15.647,46.603-14.427c0.198,1.642,0.364,3.565,0.44,5.697
			c-0.04,1.525-0.044,3.126,0.002,4.789c-0.377,10.714-3.471,24.725-14.865,36.12c-15.721,15.72-36.542,15.787-46.798,14.638
			c-0.156-1.421-0.286-3.053-0.358-4.843C102.053,378.189,102.06,376.319,102,374.36z M246.008,463.588h-144v-0.001v-58.765
			c2.378,0.209,5.06,0.353,7.994,0.353c14.946,0,36.099-3.679,53.295-20.875c4.408-4.408,7.916-9.069,10.704-13.815
			c2.788,4.746,6.296,9.408,10.704,13.816c17.198,17.197,38.348,20.875,53.294,20.875c2.939,0,5.627-0.145,8.009-0.354V463.588z
			 M246.016,380.364c-0.078,1.628-0.204,3.117-0.352,4.429c-10.253,1.153-31.088,1.093-46.817-14.635
			c-11.384-11.384-14.483-25.378-14.867-36.082c0.046-1.691,0.042-3.318,0.001-4.867c0.076-2.109,0.241-4.012,0.437-5.638
			c10.114-1.192,30.93-1.271,46.608,14.408c0.477,0.477,0.939,0.96,1.388,1.446c0.287,0.324,0.573,0.655,0.859,0.969
			c9.442,10.782,12.276,23.47,12.746,33.447C245.935,376.143,245.944,378.327,246.016,380.364z M263.501,327.414
			c-2.713,2.92-5.362,5.259-7.531,6.99c-1.973-1.574-4.344-3.651-6.798-6.211c-0.909-1.076-1.866-2.141-2.87-3.192
			c-6.676-7.924-13.086-19.355-13.086-34.049c0-22.267,14.738-36.864,22.752-43.155c8.031,6.304,22.756,20.899,22.756,43.155
			c0,15.158-6.821,26.844-13.719,34.788C264.49,326.294,263.989,326.852,263.501,327.414z M313.154,370.158
			c-15.721,15.72-36.54,15.787-46.798,14.638c-0.156-1.421-0.286-3.053-0.358-4.843c0.054-1.764,0.061-3.634,0.001-5.593
			c0.437-10.818,3.581-24.986,14.975-36.381c15.746-15.747,36.489-15.646,46.603-14.427c0.198,1.642,0.364,3.565,0.44,5.697
			c-0.04,1.525-0.044,3.126,0.002,4.789C327.643,344.752,324.549,358.762,313.154,370.158z M410.016,380.364
			c-0.078,1.628-0.205,3.117-0.352,4.429c-10.253,1.153-31.088,1.093-46.817-14.635c-11.384-11.384-14.483-25.378-14.867-36.082
			c0.047-1.692,0.043-3.318,0.001-4.867c0.076-2.109,0.241-4.012,0.437-5.638c10.114-1.192,30.93-1.271,46.608,14.408
			c0.477,0.477,0.939,0.96,1.388,1.446c0.287,0.324,0.573,0.655,0.859,0.969c9.442,10.782,12.276,23.47,12.746,33.447
			C409.935,376.143,409.944,378.327,410.016,380.364z M427.501,327.414c-2.713,2.92-5.362,5.259-7.531,6.99
			c-1.973-1.574-4.344-3.651-6.798-6.211c-0.909-1.076-1.866-2.141-2.87-3.192c-6.676-7.924-13.086-19.355-13.086-34.049
			c0-22.267,14.738-36.864,22.752-43.155c8.031,6.304,22.756,20.899,22.756,43.155c0,15.158-6.821,26.844-13.719,34.788
			C428.49,326.294,427.989,326.852,427.501,327.414z M429.999,374.36c0.437-10.818,3.581-24.986,14.975-36.381
			c15.747-15.747,36.49-15.647,46.604-14.427c0.183,1.521,0.34,3.285,0.422,5.232v5.752c-0.455,10.647-3.627,24.402-14.846,35.622
			c-15.72,15.72-36.541,15.787-46.798,14.638c-0.156-1.421-0.286-3.053-0.358-4.843C430.052,378.189,430.059,376.319,429.999,374.36
			z M492.001,453.587H492c0,5.514-4.486,10-10,10h-51.992v-58.765c2.378,0.209,5.06,0.353,7.994,0.353
			c14.946,0,36.099-3.679,53.295-20.875c0.24-0.24,0.469-0.482,0.704-0.723V453.587z"/>
	</g>
</g>
<g>
</g>
<g>
</g>
<g>
</g>
<g>
</g>
<g>
</g>
<g>
</g>
<g>
</g>
<g>
</g>
<g>
</g>
<g>
</g>
<g>
</g>
<g>
</g>
<g>
</g>
<g>
</g>
<g>
</g>
</svg>
