<?xml version="1.0" encoding="UTF-8" standalone="no"?> <svg width="64" height="64" viewBox="0 0 64 64" fill="none" xmlns="http://www.w3.org/2000/svg">
<path d="M32.555 38.832C33.2787 38.3483 34.1296 38.0901 35 38.0901C35.8704 38.0901 36.7213 38.3483 37.445 38.832C38.4973 39.535 39.7345 39.9102 41 39.9102C42.2655 39.9102 43.5027 39.535 44.555 38.832C45.2787 38.3483 46.1296 38.0901 47 38.0901C47.8704 38.0901 48.7213 38.3483 49.445 38.832C49.8941 39.1254 50.3787 39.3606 50.887 39.532C51.1374 39.6197 51.4123 39.6043 51.6513 39.4892C51.8903 39.3742 52.0738 39.1689 52.1615 38.9185C52.2492 38.6681 52.2338 38.3932 52.1187 38.1542C52.0037 37.9152 51.7984 37.7317 51.548 37.644C51.198 37.5263 50.8643 37.3647 50.555 37.163C49.5027 36.46 48.2655 36.0848 47 36.0848C45.7345 36.0848 44.4973 36.46 43.445 37.163C42.7213 37.6467 41.8704 37.9049 41 37.9049C40.1296 37.9049 39.2787 37.6467 38.555 37.163C37.5027 36.46 36.2655 36.0848 35 36.0848C33.7345 36.0848 32.4973 36.46 31.445 37.163C30.8309 37.5729 30.1232 37.8211 29.3876 37.8845C28.652 37.948 27.9122 37.8247 27.237 37.526C27.112 37.4718 26.9772 37.4437 26.841 37.4435C26.7047 37.4432 26.5699 37.4708 26.4447 37.5246C26.3195 37.5783 26.2066 37.6571 26.1129 37.756C26.0192 37.855 25.9468 37.972 25.9 38.1C25.1807 40.0193 24.8918 42.0732 25.0537 44.1165C25.2156 46.1597 25.8243 48.1425 26.8369 49.9246C27.8494 51.7067 29.241 53.2447 30.9134 54.4297C32.5857 55.6148 34.498 56.4181 36.5149 56.7828C38.5319 57.1475 40.6043 57.0647 42.5858 56.5403C44.5672 56.0158 46.4093 55.0626 47.9818 53.7479C49.5542 52.4331 50.8187 50.7891 51.6859 48.9319C52.553 47.0747 53.0016 45.0497 53 43C53 42.6 52.9823 42.2 52.947 41.8C52.9378 41.6675 52.9022 41.5381 52.8425 41.4195C52.7827 41.3008 52.6999 41.1953 52.5988 41.109C52.4978 41.0228 52.3806 40.9575 52.2541 40.917C52.1276 40.8765 51.9942 40.8617 51.8619 40.8733C51.7296 40.8849 51.6009 40.9228 51.4833 40.9847C51.3658 41.0466 51.2618 41.1314 51.1774 41.2339C51.0929 41.3365 51.0298 41.4548 50.9916 41.5821C50.9534 41.7093 50.941 41.8429 50.955 41.975C50.985 42.3143 51 42.656 51 43C51 46.1826 49.7357 49.2348 47.4853 51.4853C45.2348 53.7357 42.1826 55 39 55C35.8174 55 32.7652 53.7357 30.5147 51.4853C28.2643 49.2348 27 46.1826 27 43C27.0011 41.8888 27.1586 40.7833 27.468 39.716C28.3307 39.9319 29.229 39.9648 30.1051 39.8125C30.9812 39.6603 31.8158 39.3263 32.555 38.832V38.832Z" fill="black"/>
<path d="M5 46C5.55228 46 6 45.5523 6 45C6 44.4477 5.55228 44 5 44C4.44772 44 4 44.4477 4 45C4 45.5523 4.44772 46 5 46Z" fill="black"/>
<path d="M16.964 55.33C16.7927 55.4289 16.6546 55.5764 16.5671 55.7538C16.4796 55.9311 16.4467 56.1305 16.4725 56.3266C16.4984 56.5227 16.5817 56.7067 16.7122 56.8554C16.8426 57.0041 17.0141 57.1108 17.2052 57.162C17.3962 57.2132 17.5982 57.2066 17.7854 57.143C17.9727 57.0794 18.137 56.9617 18.2574 56.8048C18.3778 56.6479 18.4489 56.4588 18.4619 56.2614C18.4748 56.0641 18.4289 55.8673 18.33 55.696C18.1974 55.4663 17.979 55.2988 17.7228 55.2301C17.4666 55.1615 17.1937 55.1974 16.964 55.33Z" fill="black"/>
<path d="M8 58C8.55228 58 9 57.5523 9 57C9 56.4477 8.55228 56 8 56C7.44772 56 7 56.4477 7 57C7 57.5523 7.44772 58 8 58Z" fill="black"/>
<path d="M54.4 31.9C55.8849 30.5264 56.7943 28.6414 56.9453 26.6243C57.0962 24.6072 56.4775 22.6077 55.2136 21.0285C53.9497 19.4492 52.1344 18.4074 50.1333 18.1126C48.1321 17.8179 46.0936 18.2922 44.428 19.44C44.2959 19.5321 44.188 19.6548 44.1135 19.7975C44.039 19.9403 44 20.099 44 20.26V26.046C44 26.2529 44.0641 26.4547 44.1836 26.6235C44.303 26.7924 44.4719 26.9201 44.667 26.989C47.5185 27.9943 50.0499 29.7428 51.9995 32.0539C53.949 34.365 55.2461 37.1547 55.7565 40.1349C56.2669 43.1151 55.9723 46.1775 54.9029 49.0056C53.8336 51.8338 52.0285 54.3251 49.674 56.222C49.5132 56.3518 49.3966 56.5283 49.3402 56.727C49.2838 56.9258 49.2904 57.1372 49.359 57.3321C49.4276 57.527 49.555 57.6959 49.7235 57.8155C49.892 57.9351 50.0934 57.9995 50.3 58H52C52.5304 58 53.0391 58.2107 53.4142 58.5858C53.7893 58.9609 54 59.4696 54 60H24C24 59.4696 24.2107 58.9609 24.5858 58.5858C24.9609 58.2107 25.4696 58 26 58H27.7C27.9069 58.0002 28.1087 57.9361 28.2777 57.8168C28.4467 57.6974 28.5745 57.5286 28.6435 57.3335C28.7125 57.1385 28.7193 56.9268 28.663 56.7278C28.6066 56.5287 28.49 56.352 28.329 56.222C25.6607 54.073 23.7079 51.1643 22.729 47.881C23.2625 45.0902 22.7711 42.2006 21.345 39.743L19.2 36.026C19.1345 35.9175 19.0486 35.8228 18.947 35.747C18.4437 34.1963 17.4695 32.8411 16.16 31.87L12.6 29.2C12.3878 29.0409 12.1211 28.9725 11.8586 29.0101C11.596 29.0476 11.3591 29.1878 11.2 29.4C11.0409 29.6122 10.9725 29.8789 11.0101 30.1414C11.0476 30.404 11.1878 30.6409 11.4 30.8L14.959 33.47C15.5864 33.9426 16.1133 34.5355 16.509 35.214C14.3902 34.373 12.0729 34.1645 9.838 34.614C9.70917 34.6397 9.58667 34.6905 9.47747 34.7635C9.36827 34.8365 9.27453 34.9303 9.20159 35.0396C9.12865 35.1488 9.07794 35.2714 9.05236 35.4002C9.02678 35.5291 9.02683 35.6617 9.0525 35.7905C9.07817 35.9193 9.12897 36.0418 9.20199 36.151C9.27501 36.2602 9.36882 36.354 9.47807 36.4269C9.58732 36.4999 9.70986 36.5506 9.83871 36.5761C9.96755 36.6017 10.1002 36.6017 10.229 36.576C12.2023 36.1779 14.2503 36.3979 16.094 37.206L13.917 38.462C12.5828 39.2383 11.0841 39.6882 9.54294 39.7751C8.00182 39.862 6.46198 39.5834 5.049 38.962L7.227 37.7C7.45481 37.5665 7.62054 37.3482 7.68804 37.0929C7.75553 36.8376 7.71931 36.566 7.58727 36.3373C7.45524 36.1086 7.23811 35.9414 6.98326 35.8723C6.72842 35.8031 6.45656 35.8375 6.227 35.968L2.51 38.117C2.3625 38.2023 2.23922 38.3238 2.15187 38.4701C2.06452 38.6163 2.01599 38.7825 2.01088 38.9528C2.00577 39.1231 2.04425 39.2919 2.12268 39.4431C2.20111 39.5944 2.31687 39.7231 2.459 39.817C3.37359 40.4203 4.36693 40.8948 5.411 41.227C4.50726 41.3946 3.68372 41.8547 3.06732 42.5366C2.45092 43.2184 2.07587 44.084 2 45C2 47.206 4.243 49 7 49C7.059 49 7.114 48.988 7.172 48.986C6.93891 49.3978 6.75114 49.8337 6.612 50.286C6.42907 50.3967 6.287 50.5638 6.20712 50.7621C6.12724 50.9605 6.11386 51.1794 6.169 51.386C6.20372 51.5128 6.26308 51.6315 6.34371 51.7353C6.42434 51.8391 6.52464 51.926 6.63888 51.991C6.75312 52.056 6.87905 52.0979 7.00948 52.1142C7.13991 52.1305 7.27227 52.1209 7.399 52.086C7.59451 52.0302 7.7967 52.0013 8 52C9.654 52 11 53.794 11 56C11 58.206 9.654 60 8 60C6.346 60 5 58.206 5 56C4.99883 55.4355 5.09212 54.8747 5.276 54.341C5.35505 54.0925 5.33392 53.823 5.2171 53.5899C5.10029 53.3567 4.89704 53.1785 4.65067 53.093C4.4043 53.0076 4.13432 53.0218 3.89826 53.1326C3.6622 53.2433 3.47874 53.4419 3.387 53.686C3.12935 54.4302 2.99853 55.2124 3 56C3 59.309 5.243 62 8 62C9.11825 61.9294 10.1833 61.4974 11.0346 60.7689C11.8859 60.0404 12.4774 59.0549 12.72 57.961C13.2316 58.8716 13.9662 59.6373 14.8547 60.1864C15.7433 60.7354 16.7567 61.0498 17.8 61.1C18.5597 61.1047 19.307 60.908 19.966 60.53C20.5689 60.1694 21.0812 59.6754 21.4636 59.0861C21.846 58.4967 22.0884 57.8276 22.172 57.13C22.3742 55.6389 22.0654 54.1232 21.296 52.83C21.181 52.63 21.055 52.439 20.924 52.255C20.9404 52.2383 20.9557 52.2206 20.97 52.202C21.2487 51.7781 21.5002 51.3368 21.723 50.881C22.5909 52.7977 23.774 54.5554 25.223 56.081C24.316 56.262 23.4996 56.7511 22.9122 57.4654C22.3247 58.1797 22.0024 59.0752 22 60V61C22 61.2652 22.1054 61.5196 22.2929 61.7071C22.4804 61.8946 22.7348 62 23 62H55C55.2652 62 55.5196 61.8946 55.7071 61.7071C55.8946 61.5196 56 61.2652 56 61V60C55.9989 59.0743 55.6772 58.1775 55.0897 57.4621C54.5021 56.7467 53.6849 56.2569 52.777 56.076C55.8278 52.8698 57.6603 48.697 57.9567 44.2813C58.2532 39.8655 56.9949 35.4852 54.4 31.9V31.9ZM46 25.354V20.807C47.2699 20.0823 48.7608 19.8462 50.1925 20.1432C51.6242 20.4401 52.8982 21.2497 53.7751 22.4197C54.652 23.5898 55.0715 25.0398 54.9548 26.4973C54.838 27.9548 54.193 29.3195 53.141 30.335C51.1786 28.144 48.734 26.4389 46 25.354V25.354ZM19.609 40.743C20.3855 42.0771 20.8355 43.5759 20.9224 45.117C21.0093 46.6582 20.7306 48.1981 20.109 49.611L18.852 47.434C18.0783 46.0985 17.6289 44.5999 17.54 43.059C17.553 42.9658 17.553 42.8712 17.54 42.778C17.4954 41.3311 17.7731 39.8924 18.353 38.566L19.609 40.743ZM14.234 50C13.7905 49.5587 13.4459 49.0282 13.2231 48.4435C13.0004 47.8589 12.9046 47.2335 12.942 46.609L15.391 45.181C15.526 45.102 15.648 44.998 15.779 44.911C16.0367 46.1495 16.49 47.3391 17.122 48.435L17.981 49.924C17.385 49.6776 16.7444 49.5572 16.0996 49.5703C15.4547 49.5834 14.8196 49.7297 14.234 50V50ZM14.917 40.192L15.882 39.636C15.6426 40.589 15.524 41.5684 15.529 42.551C15.1855 42.8971 14.8006 43.1994 14.383 43.451L11.983 44.851C11.9265 44.1938 11.7026 43.562 11.3327 43.0159C10.9628 42.4697 10.4593 42.0274 9.87 41.731C11.6468 41.6041 13.372 41.0777 14.917 40.191V40.192ZM4 45C4 43.916 5.374 43 7 43C8.626 43 10 43.916 10 45C10 46.084 8.626 47 7 47C5.374 47 4 46.084 4 45ZM8.838 50.091C9.14628 49.5029 9.58475 48.9929 10.12 48.6L11.02 47.948C11.2402 49.2011 11.8277 50.3605 12.708 51.279C12.425 51.6397 12.1972 52.0404 12.032 52.468C11.6919 51.8733 11.2326 51.3552 10.683 50.9462C10.1334 50.5372 9.50532 50.246 8.838 50.091V50.091ZM20.193 56.827C20.1512 57.2267 20.0188 57.6117 19.8058 57.9525C19.5928 58.2934 19.3049 58.5812 18.964 58.794C17.53 59.62 15.469 58.74 14.364 56.83C13.8214 55.9298 13.599 54.8725 13.733 53.83C13.775 53.4303 13.9075 53.0455 14.1205 52.7047C14.3334 52.3638 14.6212 52.076 14.962 51.863C15.3251 51.6554 15.7368 51.5481 16.155 51.552C16.8694 51.6096 17.5572 51.8488 18.1532 52.247C18.7491 52.6452 19.2334 53.189 19.56 53.827C20.1037 54.7268 20.3268 55.7842 20.193 56.827V56.827Z" fill="black"/>
<path d="M49 13C47.989 13.0035 46.9819 13.1271 46 13.368V11.816C46.6667 11.5812 47.2287 11.118 47.5866 10.5085C47.9445 9.89894 48.0752 9.18243 47.9554 8.48582C47.8356 7.78922 47.4732 7.15748 46.9322 6.7025C46.3913 6.24752 45.7068 5.99866 45 6H44V3C44 2.73478 43.8946 2.48043 43.7071 2.29289C43.5196 2.10536 43.2652 2 43 2H35C34.7348 2 34.4804 2.10536 34.2929 2.29289C34.1054 2.48043 34 2.73478 34 3V6H29C28.7348 6 28.4804 6.10536 28.2929 6.29289C28.1054 6.48043 28 6.73478 28 7C28.0015 8.1522 28.4001 9.26868 29.1287 10.1613C29.8573 11.0538 30.8714 11.6679 32 11.9V25.354C27.3558 27.2088 23.6243 30.811 21.607 35.387C21.5477 35.5082 21.5135 35.6402 21.5066 35.775C21.4996 35.9097 21.52 36.0445 21.5665 36.1712C21.613 36.2979 21.6847 36.4138 21.7772 36.5121C21.8697 36.6103 21.9812 36.6888 22.1049 36.7429C22.2285 36.7969 22.3618 36.8253 22.4968 36.8265C22.6317 36.8276 22.7655 36.8014 22.8901 36.7495C23.0146 36.6976 23.1274 36.621 23.2216 36.5243C23.3157 36.4276 23.3894 36.3129 23.438 36.187C24.3757 34.0608 25.7373 32.1482 27.4395 30.5664C29.1418 28.9845 31.1489 27.7665 33.338 26.987C33.5318 26.9174 33.6994 26.7897 33.8179 26.6212C33.9364 26.4528 34 26.2519 34 26.046V12H44V16C44 16.2652 44.1054 16.5196 44.2929 16.7071C44.4804 16.8946 44.7348 17 45 17C45.2652 17 45.5196 16.8946 45.7071 16.7071C45.8946 16.5196 46 16.2652 46 16V15.435C46.9747 15.1504 47.9846 15.0039 49 15C51.9163 15.0034 54.7122 16.1635 56.7744 18.2256C58.8365 20.2878 59.9966 23.0837 60 26C60.004 28.3481 59.2492 30.6347 57.848 32.519C57.7697 32.6247 57.7131 32.7447 57.6813 32.8723C57.6495 32.9999 57.6431 33.1325 57.6626 33.2626C57.6821 33.3926 57.7271 33.5175 57.7949 33.6302C57.8628 33.7428 57.9522 33.8409 58.058 33.919C58.2287 34.0483 58.4369 34.1185 58.651 34.119C58.8067 34.1184 58.9601 34.0815 59.0989 34.0112C59.2378 33.9409 59.3584 33.8391 59.451 33.714C61.1105 31.4849 62.0046 28.779 62 26C61.996 22.5534 60.6251 19.2491 58.188 16.812C55.7509 14.3749 52.4466 13.004 49 13V13ZM36 4H42V6H36V4ZM30.171 8H45C45.2652 8 45.5196 8.10536 45.7071 8.29289C45.8946 8.48043 46 8.73478 46 9C46 9.26522 45.8946 9.51957 45.7071 9.70711C45.5196 9.89464 45.2652 10 45 10H33C32.3797 9.99924 31.7749 9.80662 31.2684 9.44856C30.7619 9.09049 30.3786 8.58451 30.171 8V8Z" fill="black"/>
</svg>
