<?xml version="1.0" encoding="UTF-8" standalone="no"?> <svg fill="black" xmlns="http://www.w3.org/2000/svg" viewBox="0 0 64 64"><title>gift, box, present, birthday, giftbox, celebration, </title><g id="Outline"><path d="M61.15,18.94l-.29.06a1.07,1.07,0,0,0-.21-.08L52,17.44A9.17,9.17,0,0,0,40.53,3.32,26.94,26.94,0,0,0,32.65,12H31.31a27,27,0,0,0-7.84-8.61A9.17,9.17,0,0,0,11.91,17.45L3.35,18.93A1.09,1.09,0,0,0,3,19a1.08,1.08,0,0,0-.62.23L2,19.66v7.26A1.09,1.09,0,0,0,2.88,28L6,28.65V55.92A1.09,1.09,0,0,0,6.88,57l24.83,5h0l.12.09L57.12,57A1.09,1.09,0,0,0,58,55.92V28.65L61.12,28A1.09,1.09,0,0,0,62,26.92v-6.8a1.1,1.1,0,0,0-.39-.84ZM17,31l3,.6v26L17,57Zm5,1,8.66,1.73.34.07v26L22,58Zm9-5.2v5l-.12,0L24,30.33v-5ZM20.62,24.67,22,25v5l-7-1.45v-5ZM33,31.78v-5l7-1.45v5l-6.77,1.4Zm9-1.86V25l1.71-.35L49,23.5v5ZM51,21h0l-2.66.55L32,25,16.3,21.73,13,21h0l-4.62-1,5.61-1a26.93,26.93,0,0,0,11.84,2.95,12.76,12.76,0,0,0,3.43-.42A2.47,2.47,0,0,0,30.5,22h3a2.48,2.48,0,0,0,1.34-.39,12.89,12.89,0,0,0,3.34.39A27.08,27.08,0,0,0,49.92,19.1l5.7,1ZM34,14.5v5a.5.5,0,0,1-.5.5h-3a.5.5,0,0,1-.5-.5v-5a.5.5,0,0,1,.5-.5h3A.5.5,0,0,1,34,14.5ZM41.58,5a7.19,7.19,0,1,1,7.54,12.24C46.5,18.87,40,20.56,36,19.82a2.47,2.47,0,0,0,0-.32V17.78a9.12,9.12,0,0,0,2.18.22,22.6,22.6,0,0,0,9.88-2.44,5.24,5.24,0,0,0,1.77-7.18,5.15,5.15,0,0,0-4.42-2.45,5.32,5.32,0,0,0-2.79.8A22.49,22.49,0,0,0,36,14.2a2.49,2.49,0,0,0-1.22-1.86A24.94,24.94,0,0,1,41.58,5ZM37.31,16a21.12,21.12,0,0,1,6.36-7.54,3.32,3.32,0,0,1,1.74-.5,3.16,3.16,0,0,1,2.72,1.5A3.24,3.24,0,0,1,47,13.86,21,21,0,0,1,38.18,16C37.85,16,37.56,16,37.31,16ZM12.46,7.4a7.24,7.24,0,0,1,10-2.31,25,25,0,0,1,6.79,7.27A2.49,2.49,0,0,0,28,14.26,22.49,22.49,0,0,0,21.38,6.8,5.32,5.32,0,0,0,18.59,6a5.15,5.15,0,0,0-4.42,2.45,5.24,5.24,0,0,0,1.77,7.18,22.6,22.6,0,0,0,9.88,2.44A9.12,9.12,0,0,0,28,17.85V19.5a2.48,2.48,0,0,0,0,.38c-4,.75-10.54-.94-13.15-2.55A7.24,7.24,0,0,1,12.46,7.4ZM26.69,16c-.24,0-.53,0-.87,0A21,21,0,0,1,17,13.93,3.24,3.24,0,0,1,15.87,9.5,3.16,3.16,0,0,1,18.59,8a3.32,3.32,0,0,1,1.74.5A21.12,21.12,0,0,1,26.69,16ZM4,21.23l9,1.86v5L4,26.19Zm4,8,7,1.4v26l-7-1.4Zm25,4.6.41-.08L42,32V58l-9,1.8ZM47,57l-3,.6v-26l3-.6Zm9-1.8-7,1.4v-26l7-1.4ZM51,28.05v-5l9-1.86v5Z"/></g></svg>